<svg id="Layer_1" data-name="Layer 1" xmlns="http://www.w3.org/2000/svg" viewBox="0 0 266.09 106.38"><defs><style>.cls-1{fill:#7ccd7c;}.cls-2{fill:#16425b;}</style></defs><polygon class="cls-1" points="216.5 7.03 222.16 13.5 172.88 56.57 150.03 30.43 149.7 30.72 136.47 42.28 134.95 43.61 102.11 72.32 82.19 49.53 81.85 49.82 22.59 102.15 26.45 102.15 26.45 102.76 48.67 102.78 48.67 102.15 53.03 102.15 80.28 77.8 100.21 100.59 148.13 58.7 170.98 84.84 186.07 71.66 235.35 28.58 240.36 34.3 252.05 0 216.5 7.03"/><path class="cls-2" d="M22.06,102.25" transform="translate(0)"/><polygon class="cls-2" points="206.38 25.97 0 25.97 0 27.56 204.56 27.56 206.38 25.97"/><polygon class="cls-2" points="244.25 25.97 243.71 27.56 266.09 27.56 266.09 25.97 244.25 25.97"/><rect class="cls-2" y="104.79" width="258.68" height="1.59"/><path class="cls-2" d="M129.13,70.6q-6.18-5-19.18-6.15l-.52,0v-.2q10.18-1.86,15.39-7T130,46.07q0-7.37-6.55-11.79t-18.94-4.43l-31.83-.1v2.06a17.67,17.67,0,0,1,5,.83A3.55,3.55,0,0,1,79.87,35a20.6,20.6,0,0,1,.55,5.67V91.85a20.6,20.6,0,0,1-.55,5.67,3.55,3.55,0,0,1-2.17,2.37,17.67,17.67,0,0,1-5,.83v2.06H107q13.4,0,20.92-5.21t7.53-14.78Q135.42,75.74,129.13,70.6ZM96.84,40.68a22.47,22.47,0,0,1,.51-5.57,4,4,0,0,1,1.81-2.57,8.78,8.78,0,0,1,4.08-.73q5.24,0,7.68,3.83t2.44,11.54q0,7.65-2.69,12.24T101.28,64H96.84Zm7.1,59.73a11.85,11.85,0,0,1-4.58-.67,3.58,3.58,0,0,1-2-2.42,21.19,21.19,0,0,1-.51-5.47V65.76h4.33q8.86,0,13,4.23t4.13,12.34Q118.3,100.42,103.94,100.41Z" transform="translate(0)"/><path class="cls-2" d="M64.86,98.25q-1.65-1.45-5-11.36T51.67,72.76q-4.48-3.84-12.52-4.85c-.31,0-.85-.11-1.69-.18q12.39-1.47,17.76-7a18.08,18.08,0,0,0,5.36-12.92,14.89,14.89,0,0,0-7.18-13.3Q46.23,29.85,32,29.75L0,29.67v2.12a18.49,18.49,0,0,1,5.13.85A3.56,3.56,0,0,1,7.29,35a20.51,20.51,0,0,1,.56,5.67V91.85a20.51,20.51,0,0,1-.56,5.67,3.56,3.56,0,0,1-2.16,2.37,19.87,19.87,0,0,1-5.13.67v2.12l32,.1v-2.06a17.47,17.47,0,0,1-5-.83,3.56,3.56,0,0,1-2.12-2.37,20.6,20.6,0,0,1-.55-5.67V68.13H31q4.43,0,7.58,8t8.63,26.64H69.09v-2.06A14.3,14.3,0,0,1,64.86,98.25ZM28.7,66.06H24.27V40.68a22.57,22.57,0,0,1,.5-5.57,4,4,0,0,1,1.81-2.57,8.84,8.84,0,0,1,4.08-.73q6.81,0,9.8,4.33t3,12.8q0,8.16-3.15,12.64T28.7,66.06Z" transform="translate(0)"/><path class="cls-2" d="M266.09,31.79a10.14,10.14,0,0,0-4.8,1.76,6.3,6.3,0,0,0-2.17,3.93,42.37,42.37,0,0,0-.55,7.93l.11,57.8h-5.29L208.5,46.27V85.86a45.54,45.54,0,0,0,.63,8.94,6.18,6.18,0,0,0,2.69,4.13,16.72,16.72,0,0,0,6.7,1.79v2.06H198.43v-2.06a11,11,0,0,0,5-1.74,6.3,6.3,0,0,0,2.17-3.93,42.37,42.37,0,0,0,.55-7.93V40.68a20.6,20.6,0,0,0-.55-5.67,3.55,3.55,0,0,0-2.17-2.37,17.67,17.67,0,0,0-5-.83V29.75h17.83L256.2,79V46.67a45.54,45.54,0,0,0-.63-8.94,6.16,6.16,0,0,0-2.7-4.13,16.66,16.66,0,0,0-6.69-1.79V29.75l19.91-.08Z" transform="translate(0)"/><path class="cls-2" d="M194.81,29.75H139.65v2.06a17.82,17.82,0,0,1,5,.83A3.56,3.56,0,0,1,146.8,35a20.51,20.51,0,0,1,.56,5.67V91.85a20.51,20.51,0,0,1-.56,5.67,3.56,3.56,0,0,1-2.16,2.37,17.82,17.82,0,0,1-5,.83v2.06l3.27-.1q7.86-.2,13-.2,6.2,0,18.89.3v-2.26a30.69,30.69,0,0,1-7.05-.73,4.61,4.61,0,0,1-3.1-2.52,15.14,15.14,0,0,1-.88-6V67.52h3.62q10.38,0,12.55,13.6h2.41q-.65-9.36-.65-14.65V61.53q0-5.39.3-9.72h-2.37a24.8,24.8,0,0,1-3.95,9.62,9.51,9.51,0,0,1-8.29,4h-3.62v-26a16.63,16.63,0,0,1,.5-4.81,3.12,3.12,0,0,1,2-2,14.75,14.75,0,0,1,4.63-.53h3.42q7.41,0,11.54,4.76T192,53.27h2.37q-.3-3-.3-7.86Q194.1,38.51,194.81,29.75Z" transform="translate(0)"/><path class="cls-2" d="M50.38,27.75" transform="translate(0)"/><path class="cls-2" d="M49,27.75" transform="translate(0)"/></svg>