<?xml version="1.0" standalone="no"?>
<!DOCTYPE svg PUBLIC "-//W3C//DTD SVG 20010904//EN"
 "http://www.w3.org/TR/2001/REC-SVG-20010904/DTD/svg10.dtd">
<svg version="1.0" xmlns="http://www.w3.org/2000/svg"
 width="500.000000pt" height="500.000000pt" viewBox="0 0 500.000000 500.000000"
 preserveAspectRatio="xMidYMid meet">
<metadata>
Created by potrace 1.11, written by Peter Selinger 2001-2013
</metadata>
<g transform="translate(0.000000,500.000000) scale(0.100000,-0.100000)"
fill="#000000" stroke="none">
<path d="M810 4980 c-92 -20 -208 -62 -286 -106 -173 -96 -344 -275 -421 -444
-60 -129 -68 -156 -93 -300 -13 -76 -13 -2482 1 -2535 5 -22 11 -47 13 -56 10
-41 51 -112 79 -135 41 -34 74 -47 122 -45 111 3 203 65 408 275 76 77 327
332 557 566 768 781 935 952 942 965 8 13 -12 34 -153 166 -26 24 -97 91 -159
149 -61 58 -127 119 -146 136 -55 51 -51 55 86 94 41 12 86 25 100 30 14 5 63
20 110 34 47 14 227 69 400 122 173 53 336 102 363 110 26 8 68 20 95 28 26 8
137 42 247 76 110 34 317 97 460 140 143 43 379 115 523 159 238 73 292 87
292 78 0 -2 -9 -43 -20 -93 -11 -49 -29 -127 -40 -174 -10 -47 -40 -173 -65
-280 -25 -107 -48 -205 -51 -218 -2 -13 -18 -83 -35 -155 -17 -73 -32 -139
-34 -147 -2 -8 -15 -62 -28 -120 -14 -58 -46 -197 -72 -310 -25 -113 -57 -250
-70 -305 -24 -100 -138 -591 -177 -760 -38 -167 -44 -189 -53 -192 -11 -3 -29
12 -224 196 -142 135 -169 159 -219 206 l-32 29 -116 -119 c-64 -66 -241 -248
-393 -403 -152 -156 -316 -326 -366 -377 -49 -51 -216 -222 -370 -380 -384
-393 -391 -401 -416 -451 -67 -140 -8 -322 132 -399 l54 -30 1165 -2 c1252 -2
1230 -3 1388 48 70 23 193 85 261 132 66 45 176 153 230 225 66 88 135 227
168 342 l28 95 2 1630 c1 1516 0 1636 -16 1710 -31 143 -85 270 -164 384 -45
66 -159 182 -225 230 -128 94 -300 167 -442 190 -42 6 -618 10 -1660 10 -1506
-1 -1600 -2 -1680 -19z"/>
</g>
</svg>
