<?xml version="1.0" standalone="no"?>
<!DOCTYPE svg PUBLIC "-//W3C//DTD SVG 20010904//EN"
 "http://www.w3.org/TR/2001/REC-SVG-20010904/DTD/svg10.dtd">
<svg version="1.0" xmlns="http://www.w3.org/2000/svg"
 width="500.000000pt" height="500.000000pt" viewBox="0 0 500.000000 500.000000"
 preserveAspectRatio="xMidYMid meet">
<metadata>
Created by potrace 1.11, written by Peter Selinger 2001-2013
</metadata>
<g transform="translate(0.000000,500.000000) scale(0.100000,-0.100000)"
fill="#000000" stroke="none">
<path d="M845 4994 c-11 -2 -45 -9 -75 -15 -313 -61 -603 -311 -709 -611 -26
-75 -40 -125 -51 -183 -9 -48 -15 -3305 -6 -3305 2 0 19 28 36 62 18 35 63
122 100 193 63 122 110 214 388 755 60 118 146 285 190 370 43 85 98 192 121
238 l41 82 183 -94 c210 -108 505 -259 862 -441 138 -70 295 -151 350 -180 56
-28 108 -54 117 -57 13 -5 30 20 79 115 34 67 88 172 119 232 32 61 99 191
150 290 51 99 121 234 155 300 155 297 246 477 243 480 -2 2 -84 45 -183 96
-99 50 -182 93 -184 95 -3 3 74 54 452 297 48 32 124 81 170 111 538 350 860
556 864 552 6 -6 9 -45 17 -221 4 -71 9 -164 11 -205 4 -71 8 -149 20 -400 3
-58 7 -148 10 -200 3 -52 8 -138 10 -190 3 -52 7 -133 10 -180 13 -252 17
-370 12 -370 -4 0 -22 9 -41 20 -68 37 -274 140 -282 140 -5 0 -46 -73 -92
-163 -45 -89 -125 -245 -178 -347 -52 -102 -141 -275 -197 -385 -56 -110 -104
-202 -107 -205 -3 -3 -33 -61 -67 -130 -35 -69 -121 -237 -192 -375 -71 -137
-178 -347 -239 -465 -61 -118 -115 -216 -121 -218 -9 -3 -98 42 -626 313 -99
51 -304 156 -455 233 -151 77 -312 159 -358 183 -45 23 -84 40 -86 38 -1 -2
-69 -134 -151 -294 -189 -371 -310 -606 -397 -774 -51 -97 -67 -136 -58 -141
55 -34 109 -35 1810 -35 l1675 0 85 24 c348 99 586 334 697 688 l28 88 0 1685
c0 1813 3 1710 -52 1865 -104 298 -364 535 -673 615 -25 7 -54 15 -65 18 -22
7 -3327 13 -3360 6z"/>
</g>
</svg>
